:version 1.10
:name ASF
:units
  mass 1
  length 1
  angle deg
:documentation
  ASF file generated by Kaydara
:root
  axis xyz
  order  tx ty tz rx ry rz
  position 0 0 0
  orientation 0 0 0
:bonedata
  begin
    id 1
    name RightUpLegDummy
    direction -1 2.30186e-007 8.31532e-007
    length 4.46685
    axis 0 0 0 xyz
  end
  begin
    id 2
    name RightUpLeg
    direction -2.30187e-007 -1 1.24343e-010
    length 16.4045
    axis -3.49089 -0.000906625 0.000286804 xyz
    dof rx ry rz
  end
  begin
    id 3
    name RightLeg
    direction -2.30181e-007 -1 -4.17157e-009
    length 17.5097
    axis 3.68512 0.0193738 -0.131023 xyz
    dof rx ry rz
  end
  begin
    id 4
    name RightFoot
    direction 8.31421e-007 -4.51202e-011 1
    length 6.49508
    axis 4.81691e-005 -0.120479 -0.188788 xyz
    dof rx ry rz
  end
  begin
    id 5
    name RightToes
    direction 0.00124746 -0.014064 0.9999
    length 3.85082
    axis 0.000481921 0.542163 -0.142578 xyz
    dof rx ry rz
  end
  begin
    id 6
    name SpineDummy
    direction 0.0717043 0.9409 -0.331007
    length 10.0032
    axis 0 0 0 xyz
  end
  begin
    id 7
    name Spine
    direction 2.30186e-007 1 4.58806e-011
    length 9.84055
    axis -0.001389 0.000121418 2.40972e-006 xyz
    dof rx ry rz
  end
  begin
    id 8
    name Spine1
    direction 0 0 0
    length 0
    axis -0.001389 0.000121451 1.30017e-006 xyz
    dof rx ry rz
  end
  begin
    id 9
    name HEadDummy
    direction -0.00347485 0.950688 -0.310128
    length 8.00997
    axis -0.001389 0.000121451 1.30017e-006 xyz
  end
  begin
    id 10
    name HEad
    direction -0.0222688 0.980941 0.193023
    length 5.12695
    axis -0.001389 0.000121451 1.30017e-006 xyz
    dof rx ry rz
  end
  begin
    id 11
    name LeftShoulder1Dummy
    direction 0.988871 0.146793 -0.0242004
    length 3.5792
    axis -0.001389 0.000121451 1.30017e-006 xyz
  end
  begin
    id 12
    name LeftShoulder1
    direction 0.993832 0.108932 0.020779
    length 4.16823
    axis -0.001389 0.000121451 1.30017e-006 xyz
    dof rx ry rz
  end
  begin
    id 13
    name LeftArm
    direction 1 3.44807e-006 -8.31404e-007
    length 9.91437
    axis -23.1894 0.134784 0.967509 xyz
    dof rx ry rz
  end
  begin
    id 14
    name LeftForeArm
    direction 1 3.44842e-006 -8.31581e-007
    length 9.08575
    axis -9.91835 -0.06569 -0.177793 xyz
    dof rx ry rz
  end
  begin
    id 15
    name LeftHand
    direction 0.992938 -0.0411636 0.11126
    length 5.32135
    axis -0.00960232 -0.00340091 0.185173 xyz
    dof rx ry rz
  end
  begin
    id 16
    name RightShoulderDummy
    direction -0.988871 0.146793 -0.0241962
    length 3.5792
    axis -0.001389 0.000121451 1.30017e-006 xyz
  end
  begin
    id 17
    name RightShoulder
    direction -0.993832 0.108933 0.0207785
    length 4.16823
    axis 0.215806 0.000203643 -0.0068026 xyz
    dof rx ry rz
  end
  begin
    id 18
    name RightArm
    direction -1 3.90912e-006 8.31284e-007
    length 9.91437
    axis -23.2009 -0.134239 -0.964101 xyz
    dof rx ry rz
  end
  begin
    id 19
    name RightForeArm
    direction -1 3.90882e-006 8.31502e-007
    length 9.08575
    axis -9.92322 0.0658061 0.178867 xyz
    dof rx ry rz
  end
  begin
    id 20
    name RightHand
    direction -0.992843 -0.0414603 0.112003
    length 5.28593
    axis -0.00960638 0.00330671 -0.185228 xyz
    dof rx ry rz
  end
  begin
    id 21
    name LeftUpLegDummy
    direction 1 -2.30186e-007 -8.31532e-007
    length 4.46685
    axis 0 0 0 xyz
  end
  begin
    id 22
    name LeftUpLeg
    direction -2.30187e-007 -1 6.00931e-010
    length 16.4045
    axis -3.48766 0.00143442 -0.000524262 xyz
    dof rx ry rz
  end
  begin
    id 23
    name LeftLeg
    direction -2.30187e-007 -1 1.6669e-009
    length 17.5097
    axis 3.68178 -0.00654042 -0.000285133 xyz
    dof rx ry rz
  end
  begin
    id 24
    name LeftFoot
    direction 8.31532e-007 -4.54478e-011 1
    length 6.49508
    axis 1.87233e-006 4.66016e-005 -8.6538e-006 xyz
    dof rx ry rz
  end
  begin
    id 25
    name LeftToes
    direction 0.00818058 -0.00485161 0.999955
    length 3.85048
    axis 1.06247e-005 4.65869e-005 -8.65513e-006 xyz
    dof rx ry rz
  end
:hierarchy
  begin
    root RightUpLegDummy SpineDummy LeftUpLegDummy
    RightUpLegDummy RightUpLeg
    RightUpLeg RightLeg
    RightLeg RightFoot
    RightFoot RightToes
    SpineDummy Spine
    Spine Spine1
    Spine1 HEadDummy LeftShoulder1Dummy RightShoulderDummy
    HEadDummy HEad
    LeftShoulder1Dummy LeftShoulder1
    LeftShoulder1 LeftArm
    LeftArm LeftForeArm
    LeftForeArm LeftHand
    RightShoulderDummy RightShoulder
    RightShoulder RightArm
    RightArm RightForeArm
    RightForeArm RightHand
    LeftUpLegDummy LeftUpLeg
    LeftUpLeg LeftLeg
    LeftLeg LeftFoot
    LeftFoot LeftToes
  end

:SAMPLES-PER-SECOND 30
:FULLY-SPECIFIED
:DEGREES
166
root  -11.1701 32.3732 9.15714 -176.374 37.9445 174.764
RightUpLeg  -10.2639 10.2567 -4.61105
RightLeg  30.4094 -0.769769 -0.396749
RightFoot  -15.122 -0.0342347 0.119638
RightToes  -30.294 -0.141838 -0.249622
Spine  7.40082 1.47204 3.73911
Spine1  14.1474 4.31437 4.52225
HEad  40.339 -14.3357 3.60117
LeftShoulder1  0 -2.42657e-020 -4.95415e-022
LeftArm  -4.40356 11.2057 -92.0693
LeftForeArm  20.7009 -49.998 -12.1517
LeftHand  0.118551 -3.93626 -3.82552
RightShoulder  0 2.42657e-020 1.07489e-018
RightArm  -68.9313 6.35327 71.0924
RightForeArm  47.3642 5.3104 0.923065
RightHand  -0.872577 13.3856 -7.05907
LeftUpLeg  -30.9565 -10.3596 -2.42424
LeftLeg  31.6085 -11.7402 -6.15974
LeftFoot  0.858268 0.00105639 -0.141051
LeftToes  -23.7085 1.18758e-006 1.19596e-007
167
root  -10.8346 32.3385 8.50047 -176.071 39.2174 174.426
RightUpLeg  -9.8349 11.5173 -4.98555
RightLeg  30.5063 -1.03642 -0.533258
RightFoot  -15.5479 -0.0243728 0.199029
RightToes  -30.0392 -0.144191 -0.252238
Spine  6.95152 0.390959 4.03034
Spine1  13.3568 1.85104 5.38178
HEad  40.6063 -13.1583 2.51291
LeftShoulder1  0 -2.42657e-020 -4.95415e-022
LeftArm  -7.27426 14.4159 -91.5469
LeftForeArm  21.1005 -51.9774 -13.0611
LeftHand  0.107212 -3.9757 -3.46417
RightShoulder  0 2.42657e-020 1.07489e-018
RightArm  -75.2358 3.89374 70.924
RightForeArm  42.3035 8.43709 1.48678
RightHand  -0.276368 19.461 -1.24194
LeftUpLeg  -30.2681 -11.0451 -2.81036
LeftLeg  31.4751 -10.3228 -5.39951
LeftFoot  1.43055 0.00349233 -0.279741
LeftToes  -21.2887 1.18758e-006 1.19596e-007
168
root  -10.4181 32.4236 7.83629 -176.18 40.4572 174.051
RightUpLeg  -8.8183 12.6142 -5.1912
RightLeg  30.2759 -1.25338 -0.63635
RightFoot  -14.8584 -0.0144643 0.266635
RightToes  -31.5484 -0.154728 -0.262583
Spine  6.62286 -0.784513 4.08237
Spine1  12.7955 -0.792778 5.82316
HEad  39.8514 -11.125 1.11198
LeftShoulder1  0 -2.42657e-020 -4.95415e-022
LeftArm  -10.0916 16.9402 -91.0267
LeftForeArm  21.342 -52.0511 -13.0967
LeftHand  0.0992818 -4.12812 -3.12942
RightShoulder  0 2.42657e-020 1.07489e-018
RightArm  -60.7082 -1.93076 72.368
RightForeArm  27.3552 18.8932 3.45459
RightHand  0.335469 20.2856 2.24575
LeftUpLeg  -29.3793 -10.1374 -3.53365
LeftLeg  32.1682 -10.2155 -5.50112
LeftFoot  0.95297 0.00170255 -0.204732
LeftToes  -14.1375 1.18758e-006 1.19596e-007
169
root  -9.95492 32.597 7.17082 -176.541 42.4584 173.982
RightUpLeg  -8.02225 12.68 -5.49611
RightLeg  30.638 0.28725 0.136596
RightFoot  -12.9466 -0.0554923 -0.111531
RightToes  -33.9042 -0.171709 -0.278164
Spine  6.31271 -1.65755 3.81608
Spine1  12.254 -2.91695 5.95486
HEad  40.2174 -8.76671 -0.00874681
LeftShoulder1  0 -2.42657e-020 -4.95415e-022
LeftArm  -11.5983 18.9082 -90.1249
LeftForeArm  21.4072 -50.9435 -12.5762
LeftHand  0.0744973 -4.06927 -2.4709
RightShoulder  0 2.42657e-020 1.07489e-018
RightArm  -51.5792 -8.64273 72.9857
RightForeArm  22.358 29.0394 5.61488
RightHand  0.0190363 20.5868 0.474974
LeftUpLeg  -27.0378 -8.90241 -3.95981
LeftLeg  31.1399 -9.46115 -4.88602
LeftFoot  0.123622 4.99126e-005 -0.0462768
LeftToes  -12.9326 1.18758e-006 1.19596e-007
170
root  -9.45502 32.8164 6.55335 -176.93 45.8018 173.751
RightUpLeg  -9.20639 12.7875 -6.31162
RightLeg  33.5455 3.0547 1.73983
RightFoot  -9.79619 -0.0826774 -0.587238
RightToes  -38.7937 -0.20892 -0.308207
Spine  5.95858 -2.24904 3.30366
Spine1  11.6121 -4.47805 5.70516
HEad  41.8075 -5.8486 -0.916804
LeftShoulder1  0 -2.42657e-020 -4.95415e-022
LeftArm  -13.6049 20.9699 -89.3746
LeftForeArm  21.5197 -49.886 -12.103
LeftHand  0.0789173 -3.89529 -2.69513
RightShoulder  0 2.42657e-020 1.07489e-018
RightArm  -48.7312 -14.6165 74.0401
RightForeArm  16.2332 40.2397 8.58678
RightHand  0.502173 21.199 3.05391
LeftUpLeg  -23.9323 -7.36998 -4.27316
LeftLeg  28.5768 -8.07512 -3.73329
LeftFoot  -0.635602 0.000445413 0.0802923
LeftToes  -12.4967 1.18758e-006 1.19596e-007
